<svg width="2048" height="2048" viewBox="0 0 2048 2048" fill="none" xmlns="http://www.w3.org/2000/svg">
<path d="M1431.85 1005.02C1441.83 969.282 1448.96 934.427 1451.91 898.746C1453.8 875.816 1460.49 866.661 1473.21 868.217C1485.78 869.757 1488.49 880.255 1485.7 903.429C1477.09 974.93 1459.43 1043.66 1425.99 1107.83C1369.89 1215.51 1281.98 1287.15 1170.98 1332.4C1148.41 1341.61 1125.33 1349.5 1101.7 1355.74C1095.17 1357.46 1088.86 1360.24 1082.7 1363.08C1075.39 1366.46 1068.14 1370.44 1068.04 1380.01C1067.93 1390.37 1075.66 1394.79 1083.56 1398.19C1112.47 1410.66 1143.36 1415.95 1174.17 1420C1260.14 1431.3 1342.52 1418.29 1420.32 1379.39C1507.85 1335.62 1572.88 1267.96 1622.5 1184.98C1671.77 1102.59 1700.68 1013.25 1711.15 917.618C1716.81 866.014 1713.1 814.677 1712.35 763.152C1711.17 681.346 1713.35 599.704 1750.39 523.793C1764.48 494.918 1784.53 471.745 1813.38 456.776C1818.34 454.203 1824.71 452.158 1823.94 445.095C1823.13 437.799 1816.48 437.665 1810.92 436.625C1785.53 431.879 1760.08 430.89 1735.34 439.118C1726.21 442.153 1718.02 442.563 1709.02 440.224C1660.48 427.605 1611.26 421.295 1560.99 423.399C1473.36 427.065 1400.85 461.121 1345.42 529.766C1319.94 561.309 1299.1 595.908 1283.67 633.253C1250.82 712.715 1199.56 779.572 1142.78 842.675C994.07 1007.96 822.558 1147.78 647.835 1283.89C516.608 1386.11 381.631 1483.23 244.314 1577.09C241.972 1578.69 239.502 1580.2 237.48 1582.16C231.051 1588.37 221.808 1594.09 224.469 1604.36C227.28 1615.22 237.799 1616.99 247.601 1618.46C261.594 1620.57 275.503 1623.31 289.535 1625.09C324.282 1629.52 354.367 1617.2 381.86 1597.58C447.462 1550.74 513.225 1504.15 582.612 1462.98C660.91 1416.52 741.089 1374.19 831.204 1355.16C859.943 1349.09 889.057 1347.73 918.709 1347.37C1092.01 1345.3 1246.99 1299.13 1358.7 1155.36C1393.26 1110.88 1415.86 1060.25 1431.85 1005.02ZM1639.1 580.906C1624.63 593.639 1608.48 597.868 1590.57 589.236C1575.32 581.881 1565.58 569.858 1564.16 552.476C1562.43 531.29 1574.13 513.671 1594.19 506.365C1612.99 499.52 1632.36 505.965 1645.02 523.275C1657.78 540.735 1656.45 558.623 1639.1 580.906Z" fill="#F87213"/>
</svg>
