<?xml version="1.0" standalone="no"?>
<!DOCTYPE svg PUBLIC "-//W3C//DTD SVG 20010904//EN"
 "http://www.w3.org/TR/2001/REC-SVG-20010904/DTD/svg10.dtd">
<svg version="1.0" xmlns="http://www.w3.org/2000/svg"
 width="400.000000pt" height="400.000000pt" viewBox="0 0 400.000000 400.000000"
 preserveAspectRatio="xMidYMid meet">
<metadata>
Created by potrace 1.10, written by Peter Selinger 2001-2011
</metadata>
<g transform="translate(0.000000,400.000000) scale(0.100000,-0.100000)"
fill="#000000" stroke="none">
<path d="M0 2000 l0 -2000 2000 0 2000 0 0 2000 0 2000 -2000 0 -2000 0 0
-2000z m2335 1956 c120 -23 220 -50 320 -85 50 -18 95 -33 100 -34 11 -3 213
-105 255 -129 67 -38 190 -122 190 -129 0 -5 6 -9 13 -9 16 0 357 -342 357
-358 0 -7 4 -12 9 -12 7 0 91 -123 129 -190 24 -42 126 -244 129 -255 1 -5 16
-50 34 -100 82 -233 103 -361 103 -655 0 -294 -21 -422 -103 -655 -18 -49 -33
-94 -34 -100 -3 -11 -105 -213 -129 -255 -38 -67 -122 -190 -129 -190 -5 0 -9
-5 -9 -12 0 -16 -341 -358 -357 -358 -7 0 -13 -4 -13 -9 0 -7 -123 -91 -190
-129 -42 -24 -244 -126 -255 -129 -5 -1 -50 -16 -100 -34 -233 -82 -361 -103
-655 -103 -294 0 -422 21 -655 103 -49 18 -94 33 -100 34 -11 3 -213 105 -255
129 -67 38 -190 122 -190 129 0 5 -5 9 -12 9 -16 0 -358 341 -358 358 0 6 -4
12 -9 12 -7 0 -91 123 -129 190 -24 42 -126 244 -129 255 -1 6 -16 51 -34 100
-82 233 -103 361 -103 655 0 294 21 422 103 655 18 50 33 95 34 100 3 11 105
213 129 255 38 67 122 190 129 190 5 0 9 5 9 12 0 16 341 358 358 358 6 0 12
4 12 9 0 7 123 91 190 129 42 24 244 126 255 129 6 1 50 16 98 33 146 52 300
86 467 104 81 9 449 -4 525 -18z"/>
<path d="M1754 3925 c-49 -7 -101 -16 -113 -20 -13 -4 -33 -8 -44 -10 -65 -9
-290 -77 -311 -94 -6 -5 -14 -9 -19 -10 -19 0 -77 -26 -77 -34 0 -4 -4 -6 -9
-3 -5 3 -14 -1 -21 -9 -7 -8 -16 -13 -20 -10 -4 3 -13 -2 -20 -10 -7 -8 -16
-13 -20 -10 -4 3 -13 -2 -20 -10 -7 -8 -18 -15 -25 -15 -6 0 -30 -12 -51 -28
-21 -15 -56 -36 -76 -47 -21 -11 -38 -23 -38 -27 0 -5 -6 -8 -12 -8 -7 0 -29
-15 -49 -33 -20 -17 -54 -45 -75 -62 -48 -37 -201 -190 -231 -230 -12 -17 -40
-50 -63 -75 -22 -25 -40 -51 -40 -57 0 -7 -3 -13 -7 -13 -8 0 -44 -58 -40 -64
1 -3 -7 -15 -19 -28 -27 -31 -56 -78 -48 -78 4 0 0 -8 -8 -17 -16 -20 -53 -96
-49 -102 2 -2 -2 -7 -7 -10 -21 -13 -111 -260 -117 -322 -1 -9 -5 -21 -8 -26
-8 -13 -38 -156 -33 -160 2 -2 -3 -32 -10 -66 -18 -83 -18 -391 0 -474 7 -34
12 -64 10 -66 -5 -4 25 -147 33 -160 3 -5 7 -17 8 -26 6 -62 96 -309 117 -322
5 -3 9 -8 8 -10 -3 -9 19 -57 30 -64 5 -3 8 -10 6 -14 -11 -17 157 -167 196
-175 7 -2 27 -9 43 -16 19 -9 68 -14 135 -14 96 0 111 3 171 31 58 27 95 59
293 257 223 222 227 226 201 236 -15 6 -58 42 -95 81 -37 39 -71 66 -74 61 -9
-16 -44 -2 -49 19 -3 10 -2 19 2 19 32 0 61 202 61 429 l0 84 -27 -40 c-16
-21 -33 -48 -39 -58 -6 -11 -24 -20 -45 -23 -19 -2 -65 -13 -104 -24 -38 -12
-77 -22 -85 -24 -8 -1 -33 -7 -55 -13 -39 -10 -41 -10 -77 30 -21 22 -38 45
-38 49 0 5 -5 21 -12 37 -6 15 -12 34 -14 42 -2 13 -27 92 -70 229 -8 23 -14
44 -14 46 0 4 58 29 75 33 6 1 20 4 33 7 33 7 285 88 297 95 6 3 17 7 25 8 8
1 62 18 120 38 58 19 116 38 129 41 14 3 29 8 35 12 6 4 13 7 16 7 43 3 107
35 145 71 46 43 82 50 72 14 -4 -15 0 -17 22 -10 50 15 347 113 443 146 l98
33 138 138 c76 76 143 139 150 140 6 2 13 -6 17 -16 4 -13 -20 -43 -95 -116
-55 -54 -100 -102 -100 -105 0 -6 176 48 220 67 8 3 22 7 30 9 18 4 378 122
400 131 8 3 21 7 28 9 8 1 21 6 30 10 30 13 46 16 112 21 56 4 69 2 93 -17 24
-19 27 -28 27 -82 0 -56 -12 -105 -61 -245 -10 -29 -16 -53 -13 -53 4 0 1 -6
-5 -13 -6 -8 -12 -22 -14 -33 -1 -10 -6 -24 -9 -30 -4 -6 -9 -21 -12 -35 -3
-13 -31 -98 -61 -189 -31 -91 -57 -172 -59 -180 -3 -15 -14 -45 -24 -65 -3 -5
45 38 105 98 79 76 115 106 127 101 9 -3 16 -10 16 -15 0 -5 -63 -72 -140
-149 l-141 -140 -31 -98 c-17 -53 -55 -171 -85 -261 -31 -91 -56 -170 -57
-175 -1 -6 -5 -16 -9 -23 -5 -7 -1 -9 12 -6 11 3 21 -2 25 -12 4 -12 -7 -32
-37 -64 -32 -35 -49 -66 -69 -126 -22 -68 -39 -125 -42 -145 -1 -3 -4 -10 -8
-16 -4 -6 -9 -21 -12 -35 -3 -13 -14 -49 -24 -79 -35 -97 -131 -404 -137 -438
-6 -31 -9 -33 -38 -27 -18 4 -65 18 -105 31 -41 13 -81 26 -90 27 -9 1 -21 5
-27 9 -9 5 -91 29 -105 31 -3 0 -10 7 -17 16 -7 9 -13 13 -13 9 0 -15 -60 48
-60 64 0 17 52 227 71 286 6 17 14 32 17 32 4 0 18 10 32 23 14 13 34 27 45
32 36 16 -39 18 -235 5 -144 -9 -193 -16 -222 -31 -20 -10 -47 -19 -59 -19
-18 0 -20 4 -16 27 4 24 -4 37 -65 95 -38 37 -73 79 -77 94 -6 24 -19 13 -224
-193 -180 -181 -265 -276 -259 -290 1 -2 -6 -20 -15 -40 -27 -61 -28 -220 -1
-291 41 -110 125 -205 223 -250 11 -5 24 -10 29 -10 5 0 12 -5 15 -10 12 -19
261 -111 316 -117 6 -1 26 -6 45 -12 37 -12 99 -24 140 -28 14 -2 52 -8 84
-14 83 -15 386 -13 463 3 34 7 64 12 66 10 4 -5 147 25 160 33 5 3 17 7 26 8
62 6 309 96 322 117 3 5 8 9 10 7 6 -4 82 33 102 49 9 8 17 12 17 8 0 -8 46
20 75 45 11 10 25 19 30 20 19 5 65 34 65 42 0 4 6 7 13 7 6 0 32 18 57 40 25
23 58 51 75 63 38 29 193 184 222 222 12 17 40 50 63 75 22 25 40 51 40 58 0
6 3 12 8 12 7 0 40 53 42 68 1 4 9 16 19 27 25 29 53 75 45 75 -4 0 0 8 8 18
16 19 47 82 46 96 0 5 5 12 10 15 21 13 111 260 117 322 1 9 5 21 9 27 8 13
26 102 32 157 2 22 9 64 14 94 15 79 12 374 -4 448 -7 34 -12 64 -10 66 5 4
-25 147 -33 160 -3 5 -7 17 -8 26 -6 62 -96 309 -117 322 -5 3 -9 8 -7 10 4 6
-33 82 -49 102 -8 9 -12 17 -8 17 8 0 -20 46 -45 75 -10 11 -19 25 -20 30 -5
19 -34 65 -41 65 -5 0 -8 6 -8 13 0 6 -18 32 -40 57 -23 25 -51 58 -63 75 -30
40 -183 193 -231 230 -21 17 -55 45 -75 62 -20 18 -42 33 -48 33 -7 0 -13 3
-13 8 0 4 -17 16 -37 27 -21 11 -56 32 -77 47 -21 16 -45 28 -51 28 -7 0 -18
7 -25 15 -7 8 -16 13 -20 10 -4 -3 -13 2 -20 10 -7 8 -16 13 -20 10 -4 -3 -13
2 -20 10 -7 8 -16 12 -21 9 -5 -3 -9 -1 -9 3 0 7 -60 35 -80 38 -3 0 -10 4
-16 8 -31 19 -252 84 -317 93 -16 2 -32 6 -37 9 -4 3 -59 12 -121 20 -133 17
-356 17 -485 0z"/>
<path d="M2974 3026 c-12 -9 -24 -13 -26 -10 -3 2 -11 -2 -18 -11 -7 -8 -18
-15 -25 -15 -6 0 -37 -18 -68 -40 -30 -22 -59 -40 -64 -40 -5 0 -20 -10 -33
-22 -14 -13 -26 -21 -28 -19 -2 1 -15 -6 -28 -18 -13 -11 -27 -21 -30 -20 -3
0 -17 -9 -32 -21 -15 -11 -38 -27 -52 -33 -14 -7 -34 -31 -45 -54 -11 -22 -35
-58 -53 -79 -113 -131 -171 -223 -172 -272 0 -46 93 -97 115 -62 4 6 10 8 15
5 4 -3 13 2 20 10 7 8 18 15 24 15 6 0 25 14 43 30 18 17 36 30 41 30 5 0 34
21 64 48 31 26 77 61 103 77 38 24 66 58 137 165 49 74 96 149 104 165 8 17
28 55 45 84 16 30 29 64 27 75 -4 26 -36 32 -64 12z"/>
</g>
</svg>
